<svg width="29" height="29" viewBox="0 0 29 29" fill="none" xmlns="http://www.w3.org/2000/svg">
<path fill-rule="evenodd" clip-rule="evenodd" d="M19.7725 10.5456C19.7725 11.944 19.217 13.2851 18.2282 14.2739C17.2393 15.2628 15.8982 15.8183 14.4998 15.8183C13.1014 15.8183 11.7602 15.2628 10.7714 14.2739C9.78257 13.2851 9.22705 11.944 9.22705 10.5456C9.22705 9.14714 9.78257 7.806 10.7714 6.81717C11.7602 5.82834 13.1014 5.27283 14.4998 5.27283C15.8982 5.27283 17.2393 5.82834 18.2282 6.81717C19.217 7.806 19.7725 9.14714 19.7725 10.5456ZM17.1361 10.5456C17.1361 11.2448 16.8584 11.9153 16.364 12.4097C15.8696 12.9042 15.199 13.1819 14.4998 13.1819C13.8006 13.1819 13.13 12.9042 12.6356 12.4097C12.1412 11.9153 11.8634 11.2448 11.8634 10.5456C11.8634 9.84635 12.1412 9.17578 12.6356 8.68136C13.13 8.18695 13.8006 7.90919 14.4998 7.90919C15.199 7.90919 15.8696 8.18695 16.364 8.68136C16.8584 9.17578 17.1361 9.84635 17.1361 10.5456Z" fill="#897C80"/>
<path fill-rule="evenodd" clip-rule="evenodd" d="M14.5 0C6.49205 0 0 6.49205 0 14.5C0 22.508 6.49205 29 14.5 29C22.508 29 29 22.508 29 14.5C29 6.49205 22.508 0 14.5 0ZM2.63636 14.5C2.63636 17.255 3.57623 19.7912 5.15145 21.8054C6.25771 20.3526 7.68487 19.1753 9.32143 18.3653C10.958 17.5554 12.7597 17.1348 14.5857 17.1364C16.3881 17.1347 18.1671 17.5444 19.7871 18.3343C21.4072 19.1242 22.8256 20.2735 23.9342 21.6946C25.0764 20.1967 25.8454 18.4482 26.1776 16.5941C26.5099 14.7399 26.3958 12.8332 25.8449 11.0318C25.294 9.23048 24.3221 7.5862 23.0095 6.23505C21.6969 4.8839 20.0815 3.86472 18.2969 3.26185C16.5122 2.65898 14.6097 2.48974 12.7466 2.76815C10.8836 3.04655 9.11363 3.76458 7.5832 4.86284C6.05276 5.9611 4.80584 7.40801 3.94562 9.08385C3.0854 10.7597 2.6366 12.6163 2.63636 14.5ZM14.5 26.3636C11.7766 26.3677 9.13535 25.4308 7.02327 23.7115C7.87341 22.4944 9.00495 21.5008 10.3216 20.815C11.6383 20.1292 13.1011 19.7717 14.5857 19.7727C16.0517 19.7716 17.4969 20.1202 18.8011 20.7896C20.1054 21.459 21.2311 22.43 22.0848 23.6218C19.9563 25.397 17.2716 26.3675 14.5 26.3636Z" fill="#897C80"/>
</svg>
