<svg width="12" height="20" viewBox="0 0 12 20" fill="none" xmlns="http://www.w3.org/2000/svg">
<path fill-rule="evenodd" clip-rule="evenodd" d="M0.0928041 9.4543C0.029805 9.6293 0.000147713 9.81204 1.60742e-05 9.99878C-0.000787171 10.1863 0.0284963 10.3699 0.0918016 10.5458C0.162193 10.7413 0.27796 10.9117 0.423047 11.0567L8.86866 19.4773C9.20696 19.8156 9.62449 20 10.1003 20C10.5761 20 10.9936 19.8156 11.3319 19.4773C11.6731 19.1368 11.8547 18.7142 11.8547 18.2336C11.8547 17.7632 11.6887 17.3457 11.357 17.014L4.34299 10L11.357 2.98603C11.6953 2.64772 11.8797 2.23019 11.8797 1.75439C11.8797 1.27859 11.6953 0.861057 11.357 0.522755C11.0134 0.179197 10.5856 0 10.1003 0C9.62542 0 9.20272 0.163625 8.86866 0.497692L0.422518 8.94383L0.421336 8.94501C0.277215 9.0901 0.162896 9.2596 0.0928041 9.4543Z" fill="white"/>
</svg>
