<svg width="31" height="31" viewBox="0 0 31 31" fill="none" xmlns="http://www.w3.org/2000/svg">
<path d="M28.1081 9.52858L18.451 2.01727C17.6035 1.35796 16.5604 1 15.4866 1C14.4129 1 13.3698 1.35796 12.5223 2.01727L2.86334 9.52858C2.28287 9.98 1.81323 10.5581 1.49029 11.2187C1.16735 11.8793 0.999653 12.605 1 13.3404V26.3783C1 27.3389 1.38157 28.2601 2.06076 28.9392C2.73995 29.6184 3.66113 30 4.62166 30H26.3516C27.3121 30 28.2333 29.6184 28.9125 28.9392C29.5917 28.2601 29.9733 27.3389 29.9733 26.3783V13.3404C29.9733 11.8501 29.2851 10.4431 28.1081 9.52858Z" fill="#FBC157" stroke="#FBC157" stroke-width="2" stroke-linecap="round" stroke-linejoin="round"/>
<path d="M22.6755 20.9185C18.6736 23.3323 12.1872 23.3323 8.1889 20.9185" stroke="white" stroke-width="2" stroke-linecap="round" stroke-linejoin="round"/>
</svg>
