<svg width="26" height="31" viewBox="0 0 26 31" fill="none" xmlns="http://www.w3.org/2000/svg">
<path d="M2.45 30C2.06544 30 1.69662 29.8472 1.4247 29.5753C1.15277 29.3034 1 28.9346 1 28.55V2.45C1 2.06544 1.15277 1.69662 1.4247 1.4247C1.69662 1.15277 2.06544 1 2.45 1H22.75C23.1346 1 23.5034 1.15277 23.7753 1.4247C24.0472 1.69662 24.2 2.06544 24.2 2.45V28.55C24.2 28.9346 24.0472 29.3034 23.7753 29.5753C23.5034 29.8472 23.1346 30 22.75 30H2.45Z" fill="#1E1511" stroke="#1E1511" stroke-width="2" stroke-linejoin="round"/>
<path d="M10.425 14.05V1H19.125V14.05L14.775 9.50208L10.425 14.05Z" fill="#FBC157" stroke="#FBC157" stroke-width="2" stroke-linecap="round" stroke-linejoin="round"/>
<path d="M2.45001 1H22.75H2.45001Z" fill="white"/>
<path d="M2.45001 1H22.75" stroke="#1E1511" stroke-width="2" stroke-linecap="round" stroke-linejoin="round"/>
</svg>
