<svg width="42" height="40" viewBox="0 0 42 40" fill="none" xmlns="http://www.w3.org/2000/svg">
<path d="M2.32804 40C1.66843 40 1.11513 39.7867 0.668149 39.36C0.222716 38.9348 0 38.4074 0 37.7778C0 37.1481 0.222716 36.6207 0.668149 36.1956C1.11513 35.7689 1.66843 35.5556 2.32804 35.5556H34.9206C35.5802 35.5556 36.1328 35.7689 36.5782 36.1956C37.0252 36.6207 37.2487 37.1481 37.2487 37.7778C37.2487 38.4074 37.0252 38.9348 36.5782 39.36C36.1328 39.7867 35.5802 40 34.9206 40H2.32804ZM9.31217 31.1111C6.75132 31.1111 4.55908 30.2407 2.73545 28.5C0.911817 26.7593 0 24.6667 0 22.2222V4.44444C0 3.22222 0.456296 2.17556 1.36889 1.30444C2.27993 0.434815 3.37566 0 4.65608 0H37.2487C38.5291 0 39.6256 0.434815 40.5382 1.30444C41.4492 2.17556 41.9048 3.22222 41.9048 4.44444V11.1111C41.9048 12.3333 41.4492 13.3793 40.5382 14.2489C39.6256 15.12 38.5291 15.5556 37.2487 15.5556H32.5926V22.2222C32.5926 24.6667 31.6808 26.7593 29.8571 28.5C28.0335 30.2407 25.8413 31.1111 23.2804 31.1111H9.31217ZM32.5926 11.1111H37.2487V4.44444H32.5926V11.1111Z" fill="#FBC157"/>
</svg>
