<svg width="33" height="40" viewBox="0 0 33 40" fill="none" xmlns="http://www.w3.org/2000/svg">
<path d="M11.8172 0.012069C11.5995 0.0452634 11.3917 0.127177 11.2083 0.251997C11.2083 0.251997 9.31126 1.47624 7.27172 2.80046C5.23217 4.12314 2.96318 5.58116 2.44429 5.87645C2.41228 5.8907 2.38077 5.90609 2.34981 5.92259C0.46623 7.11454 0.0748167 9.06165 0.0073317 10.1536C0.0028327 10.2044 0.0073317 10.2459 0.0073317 10.2997C-0.00916463 10.7088 0.0073317 10.9718 0.0073317 10.9718V31.0627C0.0073317 33.9818 3.32609 35.386 6.4754 35.386C7.52516 35.386 8.57493 35.2122 9.47473 34.9046C10.0746 34.597 10.505 33.9818 10.505 33.3666V17.2176C10.505 13.6803 11.2548 12.0192 13.5043 10.635C14.1042 10.3274 20.3938 5.87492 20.3938 5.87492C20.6937 5.56732 21.0027 4.94289 21.0027 4.48149V4.33692C21.0027 3.72172 20.7027 3.25109 20.2528 2.94349C19.8029 2.63589 19.2031 2.63589 18.7532 2.94349C18.6032 3.09729 9.45523 9.41385 7.50567 10.4904C5.5561 11.7208 3.737 12.0177 3.2871 11.4025C3.14763 11.2594 3.02616 10.8211 3.00667 10.3936V10.2967C3.00816 9.87832 3.11314 9.09087 3.94396 8.56641C4.78677 8.08502 6.87881 6.71466 8.91235 5.39506C9.77166 4.83677 9.87814 4.77678 10.5515 4.33692C10.6401 4.71264 10.8635 5.04035 11.1771 5.25482C11.4907 5.46929 11.8715 5.55479 12.2438 5.49429C12.6161 5.43379 12.9525 5.23173 13.1861 4.92834C13.4197 4.62496 13.5333 4.24248 13.5043 3.85706V1.55007C13.506 1.33085 13.462 1.11379 13.3752 0.913457C13.2884 0.71312 13.1608 0.534129 13.001 0.388484C12.8413 0.242839 12.653 0.133904 12.4488 0.0689845C12.2446 0.00406455 12.0293 -0.0153409 11.8172 0.012069ZM23.8145 5.39506C23.5761 5.43574 23.3507 5.53493 23.1577 5.6842C23.1577 5.6842 15.6084 10.8934 14.3007 11.787C14.2848 11.803 14.2693 11.8194 14.2542 11.8362C13.1684 12.6713 12.5251 13.6649 12.2386 14.5738C12.0781 15.0866 11.9991 15.6225 12.0047 16.161V16.6424C12.0025 16.6901 12.0025 16.7378 12.0047 16.7855V35.386C12.0047 38.3082 15.2859 40 18.2853 40C19.635 40 20.8527 39.7016 21.7525 39.0864C23.5521 38.0098 32.2502 31.0612 32.2502 31.0612C32.7001 30.7536 33 30.3198 33 29.8584V9.86448C33 9.09548 32.7091 8.63408 32.1092 8.32648C31.6593 8.01888 30.92 8.16346 30.4701 8.47106C28.0706 10.3167 21.6115 15.5274 20.1119 16.4502C18.0123 17.6806 16.0343 17.9882 15.2844 17.2192C14.9845 16.9116 15.004 16.6224 15.004 16.161C15.013 15.8965 15.0415 15.6689 15.0985 15.4874C15.1825 15.2198 15.3534 14.8907 15.9878 14.3831C16.0178 14.3585 16.0028 14.36 16.0343 14.3354C17.1185 13.5926 20.4343 11.2748 22.5968 9.76759C22.7193 10.1047 22.9532 10.387 23.2577 10.5656C23.5622 10.7441 23.9181 10.8076 24.2635 10.7448C24.6089 10.6821 24.9219 10.4972 25.1482 10.2223C25.3744 9.94734 25.4995 9.59978 25.5017 9.24005V6.93306C25.5033 6.71384 25.4593 6.49679 25.3725 6.29645C25.2857 6.09611 25.1581 5.91712 24.9984 5.77147C24.8386 5.62583 24.6503 5.5169 24.4461 5.45198C24.242 5.38706 24.0266 5.36765 23.8145 5.39506ZM30.0007 16.6424V19.7184L22.5023 25.6766V22.6006L30.0007 16.6424Z" fill="#FBC157"/>
</svg>
