<svg width="41" height="40" viewBox="0 0 41 40" fill="none" xmlns="http://www.w3.org/2000/svg">
<path d="M33.0278 20C32.1216 20 31.2526 19.6488 30.6118 19.0237C29.9711 18.3986 29.6111 17.5507 29.6111 16.6667C29.6111 15.7826 29.9711 14.9348 30.6118 14.3096C31.2526 13.6845 32.1216 13.3333 33.0278 13.3333C33.9339 13.3333 34.803 13.6845 35.4437 14.3096C36.0845 14.9348 36.4444 15.7826 36.4444 16.6667C36.4444 17.5507 36.0845 18.3986 35.4437 19.0237C34.803 19.6488 33.9339 20 33.0278 20ZM26.1944 11.1111C25.2883 11.1111 24.4192 10.7599 23.7785 10.1348C23.1377 9.50968 22.7778 8.66183 22.7778 7.77778C22.7778 6.89372 23.1377 6.04588 23.7785 5.42075C24.4192 4.79563 25.2883 4.44444 26.1944 4.44444C27.1006 4.44444 27.9696 4.79563 28.6104 5.42075C29.2511 6.04588 29.6111 6.89372 29.6111 7.77778C29.6111 8.66183 29.2511 9.50968 28.6104 10.1348C27.9696 10.7599 27.1006 11.1111 26.1944 11.1111ZM14.8056 11.1111C13.8994 11.1111 13.0304 10.7599 12.3896 10.1348C11.7489 9.50968 11.3889 8.66183 11.3889 7.77778C11.3889 6.89372 11.7489 6.04588 12.3896 5.42075C13.0304 4.79563 13.8994 4.44444 14.8056 4.44444C15.7117 4.44444 16.5808 4.79563 17.2215 5.42075C17.8623 6.04588 18.2222 6.89372 18.2222 7.77778C18.2222 8.66183 17.8623 9.50968 17.2215 10.1348C16.5808 10.7599 15.7117 11.1111 14.8056 11.1111ZM7.97222 20C7.06607 20 6.19702 19.6488 5.55627 19.0237C4.91552 18.3986 4.55556 17.5507 4.55556 16.6667C4.55556 15.7826 4.91552 14.9348 5.55627 14.3096C6.19702 13.6845 7.06607 13.3333 7.97222 13.3333C8.87838 13.3333 9.74742 13.6845 10.3882 14.3096C11.0289 14.9348 11.3889 15.7826 11.3889 16.6667C11.3889 17.5507 11.0289 18.3986 10.3882 19.0237C9.74742 19.6488 8.87838 20 7.97222 20ZM20.5 0C15.0631 0 9.84881 2.10714 6.00431 5.85786C2.15981 9.60859 0 14.6957 0 20C0 25.3043 2.15981 30.3914 6.00431 34.1421C9.84881 37.8929 15.0631 40 20.5 40C21.4062 40 22.2752 39.6488 22.9159 39.0237C23.5567 38.3986 23.9167 37.5507 23.9167 36.6667C23.9167 35.8 23.575 35.0222 23.0283 34.4444C22.5044 33.8444 22.1628 33.0667 22.1628 32.2222C22.1628 31.3382 22.5227 30.4903 23.1635 29.8652C23.8042 29.2401 24.6733 28.8889 25.5794 28.8889H29.6111C32.6316 28.8889 35.5284 27.7183 37.6643 25.6345C39.8001 23.5508 41 20.7246 41 17.7778C41 7.95556 31.8206 0 20.5 0Z" fill="#FBC157"/>
</svg>
