<svg width="60" height="60" viewBox="0 0 60 60" fill="none" xmlns="http://www.w3.org/2000/svg">
<path d="M11.3793 40.3448L30 38.2759C36.2069 40 48.8276 43.4483 49.6552 43.4483C50.4828 43.4483 49.3104 48.9655 48.6207 51.7242L32.069 55.8621L16.5517 52.7586L12.4138 47.5862L11.3793 40.3448Z" fill="#FBC157"/>
<path fill-rule="evenodd" clip-rule="evenodd" d="M40.9091 21.8183C40.9091 24.7115 39.7598 27.4863 37.7139 29.5321C35.6681 31.578 32.8933 32.7273 30 32.7273C27.1068 32.7273 24.332 31.578 22.2861 29.5321C20.2403 27.4863 19.0909 24.7115 19.0909 21.8183C19.0909 18.925 20.2403 16.1502 22.2861 14.1044C24.332 12.0585 27.1068 10.9092 30 10.9092C32.8933 10.9092 35.6681 12.0585 37.7139 14.1044C39.7598 16.1502 40.9091 18.925 40.9091 21.8183ZM35.4546 21.8183C35.4546 23.2649 34.8799 24.6523 33.857 25.6752C32.8341 26.6981 31.4467 27.2728 30 27.2728C28.5534 27.2728 27.166 26.6981 26.1431 25.6752C25.1202 24.6523 24.5455 23.2649 24.5455 21.8183C24.5455 20.3716 25.1202 18.9842 26.1431 17.9613C27.166 16.9384 28.5534 16.3637 30 16.3637C31.4467 16.3637 32.8341 16.9384 33.857 17.9613C34.8799 18.9842 35.4546 20.3716 35.4546 21.8183Z" fill="#1E1511"/>
<path fill-rule="evenodd" clip-rule="evenodd" d="M30 0C13.4318 0 0 13.4318 0 30C0 46.5682 13.4318 60 30 60C46.5682 60 60 46.5682 60 30C60 13.4318 46.5682 0 30 0ZM5.45455 30C5.45455 35.7 7.39909 40.9473 10.6582 45.1145C12.947 42.1088 15.8997 39.6729 19.2857 37.9972C22.6717 36.3215 26.3993 35.4513 30.1773 35.4545C33.9064 35.451 37.587 36.2987 40.9389 37.933C44.2908 39.5674 47.2254 41.9452 49.5191 44.8855C51.8821 41.7862 53.4732 38.1688 54.1606 34.3325C54.8481 30.4963 54.6121 26.5515 53.4723 22.8245C52.3324 19.0975 50.3215 15.6956 47.6059 12.9001C44.8902 10.1046 41.548 7.99598 37.8556 6.74866C34.1632 5.50134 30.2269 5.1512 26.3723 5.7272C22.5178 6.3032 18.8558 7.78879 15.6894 10.0611C12.5229 12.3333 9.94312 15.3269 8.16335 18.7942C6.38358 22.2614 5.45504 26.1026 5.45455 30ZM30 54.5455C24.3653 54.5539 18.9007 52.6155 14.5309 49.0582C16.2898 46.5402 18.6309 44.4843 21.3551 43.0655C24.0792 41.6467 27.1058 40.9069 30.1773 40.9091C33.2104 40.9067 36.2004 41.6279 38.8989 43.013C41.5974 44.398 43.9265 46.4069 45.6927 48.8727C41.289 52.5456 35.7343 54.5535 30 54.5455Z" fill="#1E1511"/>
<path d="M11.3793 46.5517L28.9655 38.2759H34.1379L31.0345 31.0345L24.8276 28.9655L21.7241 18.6207L26.8966 13.4483H34.1379L40.3448 21.7241L32.069 31.0345L35.1724 38.2759L46.5517 46.5517L53.7931 45.5172L56.8966 22.7586L45.5172 7.24138L27.931 2.06897L13.4483 8.27587L3.10345 28.9655L11.3793 46.5517Z" fill="#1E1511" stroke="#1E1511" stroke-width="1.5"/>
<circle cx="30" cy="24.8276" r="10.3448" fill="#FBC157"/>
</svg>
