<svg width="9" height="9" viewBox="0 0 9 9" fill="none" xmlns="http://www.w3.org/2000/svg">
<path d="M4.49994 3.56546L7.76459 0.300808L7.76464 0.300761C7.82606 0.239415 7.89897 0.190767 7.97919 0.157595C8.05941 0.124423 8.14539 0.107377 8.2322 0.107431C8.31901 0.107484 8.40496 0.124636 8.48514 0.157906C8.56532 0.191176 8.63817 0.239913 8.69951 0.301336C8.76086 0.362759 8.80951 0.435663 8.84268 0.515886C8.87585 0.596109 8.8929 0.68208 8.89284 0.76889C8.89279 0.855702 8.87564 0.941652 8.84237 1.02183C8.8091 1.10202 8.76036 1.17486 8.69894 1.23621M4.49994 3.56546L8.62322 1.1604M4.49994 3.56546L1.23624 0.300819L1.23623 0.300808C1.11219 0.176773 0.943963 0.10709 0.76855 0.10709C0.593137 0.10709 0.424909 0.176773 0.300873 0.300808C0.176838 0.424844 0.107156 0.593072 0.107156 0.768485C0.107156 0.943897 0.176838 1.11213 0.300873 1.23616L0.300884 1.23617L3.56552 4.49986M4.49994 3.56546L3.64129 4.42411M8.69894 1.23621L8.62322 1.1604M8.69894 1.23621L8.69897 1.23617L8.62322 1.1604M8.69894 1.23621L5.43434 4.49986M8.62322 1.1604L5.35857 4.42411L5.43434 4.49986M5.43434 4.49986L8.69894 7.76352M5.43434 4.49986L5.35857 4.57561L8.62322 7.83933M8.69894 7.76352L8.69897 7.76356L8.62322 7.83933M8.69894 7.76352C8.82298 7.88742 8.89274 8.05551 8.89284 8.23084C8.89295 8.40616 8.82341 8.57434 8.69951 8.69839C8.57562 8.82244 8.40752 8.89219 8.2322 8.8923C8.05687 8.8924 7.88869 8.82286 7.76464 8.69897L7.76459 8.69892L4.49994 5.43426M8.69894 7.76352L8.62322 7.83933M8.62322 7.83933L4.49994 5.43426M4.49994 5.43426L4.57569 5.35849L7.84036 8.62316L4.49994 5.43426ZM4.49994 5.43426L4.42418 5.3585L1.16047 8.62316C1.109 8.67462 1.0479 8.71545 0.980653 8.7433C0.913408 8.77116 0.841335 8.7855 0.76855 8.7855C0.621553 8.7855 0.480577 8.7271 0.376635 8.62316C0.325168 8.57169 0.284342 8.51059 0.256488 8.44335C0.228634 8.3761 0.214298 8.30403 0.214298 8.23124C0.214298 8.15846 0.228634 8.08639 0.256488 8.01914C0.284342 7.9519 0.325168 7.8908 0.376635 7.83933L3.64129 4.57561L3.56552 4.49986M4.49994 5.43426L1.23624 8.69891L1.23623 8.69892C1.17481 8.76033 1.1019 8.80905 1.02165 8.84229C0.941412 8.87553 0.855407 8.89264 0.76855 8.89264C0.593136 8.89264 0.424908 8.82295 0.300873 8.69892C0.239457 8.6375 0.190739 8.56459 0.157501 8.48435C0.124263 8.4041 0.107156 8.3181 0.107156 8.23124C0.107156 8.14439 0.124263 8.05838 0.157501 7.97814C0.190739 7.89789 0.239457 7.82498 0.300873 7.76357L0.300884 7.76356L3.56552 4.49986M3.56552 4.49986L3.64129 4.42411M3.64129 4.42411L0.376635 1.1604L3.64129 4.42411Z" fill="#FBC157" stroke="#FBC157" stroke-width="0.2"/>
</svg>
