<svg width="29" height="29" viewBox="0 0 29 29" fill="none" xmlns="http://www.w3.org/2000/svg">
<path fill-rule="evenodd" clip-rule="evenodd" d="M19.7727 10.5455C19.7727 11.9439 19.2172 13.285 18.2284 14.2739C17.2396 15.2627 15.8984 15.8182 14.5 15.8182C13.1016 15.8182 11.7605 15.2627 10.7716 14.2739C9.78281 13.285 9.22729 11.9439 9.22729 10.5455C9.22729 9.14708 9.78281 7.80594 10.7716 6.81711C11.7605 5.82828 13.1016 5.27277 14.5 5.27277C15.8984 5.27277 17.2396 5.82828 18.2284 6.81711C19.2172 7.80594 19.7727 9.14708 19.7727 10.5455ZM17.1364 10.5455C17.1364 11.2447 16.8586 11.9153 16.3642 12.4097C15.8698 12.9041 15.1992 13.1819 14.5 13.1819C13.8008 13.1819 13.1302 12.9041 12.6358 12.4097C12.1414 11.9153 11.8637 11.2447 11.8637 10.5455C11.8637 9.84629 12.1414 9.17572 12.6358 8.6813C13.1302 8.18689 13.8008 7.90913 14.5 7.90913C15.1992 7.90913 15.8698 8.18689 16.3642 8.6813C16.8586 9.17572 17.1364 9.84629 17.1364 10.5455Z" fill="#FBC157"/>
<path fill-rule="evenodd" clip-rule="evenodd" d="M14.5 0C6.49205 0 0 6.49205 0 14.5C0 22.508 6.49205 29 14.5 29C22.508 29 29 22.508 29 14.5C29 6.49205 22.508 0 14.5 0ZM2.63636 14.5C2.63636 17.255 3.57623 19.7912 5.15145 21.8054C6.25771 20.3526 7.68487 19.1753 9.32143 18.3653C10.958 17.5554 12.7597 17.1348 14.5857 17.1364C16.3881 17.1347 18.1671 17.5444 19.7871 18.3343C21.4072 19.1242 22.8256 20.2735 23.9342 21.6946C25.0764 20.1967 25.8454 18.4482 26.1776 16.5941C26.5099 14.7399 26.3958 12.8332 25.8449 11.0318C25.294 9.23048 24.3221 7.5862 23.0095 6.23505C21.6969 4.8839 20.0815 3.86472 18.2969 3.26185C16.5122 2.65898 14.6097 2.48974 12.7466 2.76815C10.8836 3.04655 9.11363 3.76458 7.5832 4.86284C6.05276 5.9611 4.80584 7.40801 3.94562 9.08385C3.0854 10.7597 2.6366 12.6163 2.63636 14.5ZM14.5 26.3636C11.7766 26.3677 9.13535 25.4308 7.02327 23.7115C7.87341 22.4944 9.00495 21.5008 10.3216 20.815C11.6383 20.1292 13.1011 19.7717 14.5857 19.7727C16.0517 19.7716 17.4969 20.1202 18.8011 20.7896C20.1054 21.459 21.2311 22.43 22.0848 23.6218C19.9563 25.397 17.2716 26.3675 14.5 26.3636Z" fill="#FBC157"/>
</svg>
